<svg width="25" height="26" viewBox="0 0 25 26" fill="none" xmlns="http://www.w3.org/2000/svg">
<path d="M7.29169 7.92877V7.19505C7.29169 5.04915 7.29169 3.9762 7.98128 3.37812C8.67088 2.78004 9.73304 2.93177 11.8574 3.23525L16.7235 3.93042C19.1797 4.28129 20.4077 4.45673 21.1414 5.30262C21.875 6.14851 21.875 7.38905 21.875 9.87011V16.1292C21.875 18.6103 21.875 19.8508 21.1414 20.6967C20.4077 21.5426 19.1797 21.7181 16.7235 22.0689L11.8574 22.7641C9.73304 23.0676 8.67088 23.2193 7.98128 22.6212C7.29169 22.0231 7.29169 20.9502 7.29169 18.8043V18.2767" stroke="#F5D88D" stroke-width="2"/>
<path d="M16.6667 13.0003L17.4476 12.3756L17.9473 13.0003L17.4476 13.625L16.6667 13.0003ZM4.16669 14.0003C3.6144 14.0003 3.16669 13.5526 3.16669 13.0003C3.16669 12.448 3.6144 12.0003 4.16669 12.0003V14.0003ZM13.2809 7.1673L17.4476 12.3756L15.8858 13.625L11.7192 8.41669L13.2809 7.1673ZM17.4476 13.625L13.2809 18.8334L11.7192 17.584L15.8858 12.3756L17.4476 13.625ZM16.6667 14.0003H4.16669V12.0003H16.6667V14.0003Z" fill="#F5D88D"/>
</svg>
